<?xml version="1.0" encoding="utf-8"?>
<!-- Generator: Adobe Illustrator 27.2.0, SVG Export Plug-In . SVG Version: 6.00 Build 0)  -->
<svg version="1.1" id="Layer_1" xmlns="http://www.w3.org/2000/svg" xmlns:xlink="http://www.w3.org/1999/xlink" x="0px" y="0px"
	 viewBox="0 0 2834.65 2834.65" style="enable-background:new 0 0 2834.65 2834.65;" xml:space="preserve">
<style type="text/css">
	.st0{fill:#7188C4;}
	.st1{fill:#264688;}
	.st2{fill:#4558A7;}
	.st3{fill:#5C62AC;}
</style>
<g>
	
		<ellipse transform="matrix(0.6027 -0.7979 0.7979 0.6027 -567.0626 1694.9189)" class="st0" cx="1418.68" cy="1416.96" rx="1416.96" ry="1413.17"/>
	<path class="st1" d="M1652.89,1104.9C1302.9,840.52,1112.13,443.27,1097.13,35.3c-305.53,74.83-588.66,251.76-793.51,522.96
		c-470.72,623.16-349.98,1507.78,269.68,1975.86s1503.59,342.36,1974.31-280.8c204.85-271.2,297.64-591.91,286.08-906.26
		C2437.16,1444.17,2002.88,1369.27,1652.89,1104.9z"/>
	<path class="st2" d="M1386.38,1456.9C959.57,1134.5,766.72,617.34,837.96,122.88c-211.21,94.33-402.29,241.74-551.57,439.37
		c-471.68,624.44-347.85,1513.01,276.58,1984.7s1513.01,347.85,1984.7-276.58c149.28-197.63,238.84-421.72,271.83-650.68
		C2363.36,1823.41,1813.18,1779.3,1386.38,1456.9z"/>
	<path class="st3" d="M1035.99,1920.75c-515.8-389.63-689.98-1063.7-469.14-1638.4c-103.71,77.83-198.41,171.27-280.46,279.9
		c-471.68,624.44-347.85,1513.01,276.58,1984.7c624.44,471.68,1513.01,347.85,1984.7-276.58
		c82.06-108.63,146.04-225.27,192.55-346.3C2247.81,2293.62,1551.8,2310.38,1035.99,1920.75z"/>
</g>
</svg>
